<mxfile host="app.diagrams.net" modified="2023-09-25T07:01:27.843Z" agent="Mozilla/5.0 (Windows NT 10.0; Win64; x64) AppleWebKit/537.36 (KHTML, like Gecko) Chrome/117.0.0.0 Safari/537.36" version="21.8.2" etag="4_1CUOZoeGvf5lzID2JI" type="github">
  <diagram name="Страница — 1" id="aoDku1oZ-v_Cwu6YTtVJ">
    <mxGraphModel>
      <root>
        <mxCell id="0" />
        <mxCell id="1" parent="0" />
      </root>
    </mxGraphModel>
  </diagram>
</mxfile>
